<svg xmlns="http://www.w3.org/2000/svg" xmlns:xlink="http://www.w3.org/1999/xlink" viewBox="0 0 102 29" fill="#fff" fill-rule="evenodd" stroke="#000" stroke-linecap="round" stroke-linejoin="round"><use xlink:href="#A" x=".5" y=".5"/><symbol id="A" overflow="visible"><g stroke="none"><path d="M85.687 26.7l14.322-13.065L93.225.12z" fill="#097939"/><path d="M80.863 26.7l14.322-13.065L88.4.12z" fill="#ed752e"/><path d="M12.41.27L6.38 21.746l21.407.15L33.666.27h5.427l-7.05 25.14c-.27.96-1.298 1.74-2.295 1.74H2.31c-1.664 0-2.65-1.3-2.2-2.9L6.833.27zM78.59.12h5.427l-7.53 27.03h-5.58zM39.707 11.383l27.136-.15 1.8-5.707h-27.6L42.7.27 72.1 0c1.83-.017 2.92 1.4 2.438 3.167L71.79 13.3c-.483 1.766-2.36 3.197-4.2 3.197H43.325L40.463 27.6h-5.28z" fill="#ffffff"/></g></symbol></svg>